<svg xmlns="http://www.w3.org/2000/svg" viewBox="0 0 109.504 109.504"><defs><style>.cls-1{fill:#363636;}.cls-2{fill:#919191;}.cls-3,.cls-4,.cls-5{fill:none;stroke-miterlimit:10;}.cls-3,.cls-4{stroke:#fff;}.cls-3{stroke-width:5px;}.cls-4{stroke-width:4px;}.cls-5{stroke:#545454;stroke-width:10px;}</style></defs><title>broken2</title><g id="Calque_2" data-name="Calque 2"><g id="Info-relative"><circle class="cls-1" cx="54.922" cy="54.554" r="45.396"/><path class="cls-2" d="M52.305,47.021S41.34,60.137,34.2,64.906c-2.708,1.807-6.066,2.387-8.65,4.454-4.271,3.417-10.873,13.713-10.873,13.713l29.71,19.672S51.76,91.536,53.05,86.874c.9-3.263.012-6.606.653-9.908.842-4.337,3.74-8.809,5.783-12.756q3.183-6.15,6.523-12.218l-5.534-2.008.2-1.254-2.186.534Z"/><path class="cls-2" d="M31.126,93.966c4.727-7.138,6.461-10.408,7.52-11.035,6.422-3.8,15.064,2.575,11.4,10.245Z"/><path class="cls-3" d="M16.331,80.571s6.33-9.887,10.486-13.129c2.514-1.962,5.821-2.464,8.461-4.17C40.34,60,51.3,47,51.3,47l3.487,4.527,7.538-8.257.2,7.209,3.935.824s-4.2,7.811-6.217,11.756c-1.945,3.8-4.725,8.094-5.477,12.294-.572,3.2.369,6.464-.462,9.619-1.188,4.509-8.267,15.268-8.267,15.268"/><path class="cls-4" d="M31.678,93.132C36.742,85.485,38.621,82,39.724,81.3c6.686-4.2,15.306,2.209,11.314,10.38"/><circle class="cls-5" cx="54.752" cy="54.752" r="49.751"/></g></g></svg>