<svg xmlns="http://www.w3.org/2000/svg" viewBox="0 0 109.509 109.509"><defs><style>.cls-1{fill:#363636;}.cls-2{fill:#919191;}.cls-3,.cls-4,.cls-5{fill:none;stroke-miterlimit:10;}.cls-3,.cls-4{stroke:#fff;}.cls-3{stroke-width:5px;}.cls-4{stroke-width:4px;}.cls-5{stroke:#fafafa;stroke-width:10px;}</style></defs><title>broken</title><g id="Calque_2" data-name="Calque 2"><g id="Info-relative"><circle class="cls-1" cx="54.793" cy="54.496" r="45.396"/><path class="cls-2" d="M48.573,49.505s-2.321,16.937-5.839,24.772c-1.333,2.97-3.87,5.245-4.961,8.37-1.8,5.163-1.926,17.393-1.926,17.393l35.622.882s.293-13.415-1.091-18.05c-.969-3.244-3.5-5.6-4.711-8.741-1.59-4.122-1.511-9.45-1.878-13.88-.38-4.6-.691-9.207-.965-13.816l-5.755,1.24-.5-1.17-1.568,1.614Z"/><path class="cls-2" d="M55.573,100.528c.211-8.558-.057-12.25.507-13.344,3.419-6.635,14.13-5.822,15.1,2.622Z"/><path class="cls-3" d="M35.921,97.041s.111-11.74,1.909-16.694c1.087-3,3.622-5.18,4.953-8.029,2.55-5.461,4.932-22.295,4.932-22.295l5.358,1.982,2-11,4,6,3.772-1.393s.594,8.848.979,13.264c.37,4.252.3,9.367,1.891,13.325,1.214,3.013,3.747,5.28,4.719,8.4,1.389,4.45,1.109,17.326,1.109,17.326"/><path class="cls-4" d="M55.6,99.529c.227-9.169-.034-13.123.532-14.3,3.431-7.113,14.141-6.261,15.1,2.783"/><circle class="cls-5" cx="54.754" cy="54.754" r="49.751"/></g></g></svg>